<?xml version="1.0" standalone="no"?>
<!DOCTYPE svg PUBLIC "-//W3C//DTD SVG 1.1//EN" "http://www.w3.org/Graphics/SVG/1.1/DTD/svg11.dtd" >
<svg xmlns="http://www.w3.org/2000/svg" xmlns:xlink="http://www.w3.org/1999/xlink" version="1.1">
<metadata></metadata>
<defs>
<font id="heliosextcregular" horiz-adv-x="1374" >
<font-face units-per-em="2048" ascent="1563" descent="-485" />
<missing-glyph horiz-adv-x="684" />
<glyph horiz-adv-x="0" />
<glyph horiz-adv-x="682" />
<glyph unicode=" "  horiz-adv-x="684" />
<glyph unicode="&#x09;" horiz-adv-x="684" />
<glyph unicode="&#xa0;" horiz-adv-x="684" />
<glyph unicode="!" horiz-adv-x="667" d="M211 0v246h246v-246h-246zM211 944v543h246v-543l-62 -573h-123z" />
<glyph unicode="&#x22;" horiz-adv-x="618" d="M90 885v559h141v-559h-141zM387 885v559h141v-559h-141z" />
<glyph unicode="#" horiz-adv-x="1583" d="M88 451l53 147h312l92 264h-330l51 148h334l162 456h166l-162 -456h258l164 456h164l-160 -456h303l-51 -148h-305l-92 -264h321l-51 -147h-324l-162 -455h-165l161 455h-260l-161 -455h-166l159 455h-311zM621 598h260l92 264h-260z" />
<glyph unicode="$" d="M70 459h211q8 -132 96.5 -205t253.5 -82v490q-270 40 -395 134t-125 265q0 169 136 274t384 115v158h119v-156q240 -9 377.5 -115t146.5 -280h-209q-15 104 -92.5 159t-222.5 62v-457q149 -24 249.5 -56t170.5 -80t101.5 -114.5t31.5 -158.5q0 -188 -142.5 -295.5 t-410.5 -114.5v-174h-119v174q-261 6 -411 130.5t-150 326.5zM322 1067q0 -94 75 -147.5t234 -73.5v440q-150 -7 -229.5 -65.5t-79.5 -153.5zM750 172q342 12 342 227q0 104 -78 156t-264 84v-467z" />
<glyph unicode="%" horiz-adv-x="1767" d="M86 1092q0 192 92.5 293.5t265.5 101.5q174 0 266.5 -101.5t92.5 -293.5t-93 -294t-266 -102t-265.5 102t-92.5 294zM236 1092q0 -134 53 -203.5t155 -69.5q103 0 156 69t53 204q0 272 -209 272q-208 0 -208 -272zM340 -39l936 1526h149l-936 -1526h-149zM965 356 q0 192 92.5 294t265.5 102t265.5 -102t92.5 -294t-92.5 -293.5t-265.5 -101.5t-265.5 101.5t-92.5 293.5zM1114 356q0 -134 53 -203t156 -69q209 0 209 272q0 273 -209 273q-103 0 -156 -69t-53 -204z" />
<glyph unicode="&#x26;" horiz-adv-x="1619" d="M106 391q0 318 402 463q-91 79 -134.5 154.5t-43.5 158.5q0 145 103 233.5t282 88.5q177 0 276 -83t99 -224q0 -230 -279 -359l389 -362q68 119 68 233h182q0 -204 -113 -360l357 -334h-277l-194 184q-107 -115 -243.5 -169t-317.5 -54q-246 0 -401 124t-155 306z M317 428q0 -121 111.5 -205t286.5 -84q216 0 377 166l-469 438q-161 -75 -233.5 -146.5t-72.5 -168.5zM528 1171q0 -59 37.5 -112.5t122.5 -128.5q110 51 160.5 105t50.5 126q0 74 -49 117t-137 43q-83 0 -134 -43t-51 -107z" />
<glyph unicode="'" horiz-adv-x="317" d="M90 885v559h139v-559h-139z" />
<glyph unicode="(" horiz-adv-x="667" d="M119 547q0 246 95.5 473t293.5 465h154q-324 -432 -324 -936q0 -508 324 -940h-154q-198 238 -293.5 465t-95.5 473z" />
<glyph unicode=")" horiz-adv-x="667" d="M6 -391q324 432 324 940q0 504 -324 936h154q198 -238 293.5 -465t95.5 -473t-95.5 -473t-293.5 -465h-154z" />
<glyph unicode="*" horiz-adv-x="1069" d="M152 1194l45 139l264 -86v279h147v-279l264 86l46 -139l-265 -86l164 -225l-121 -86l-161 225l-162 -225l-121 86l162 225z" />
<glyph unicode="+" horiz-adv-x="1714" d="M256 532v142h530v543h142v-543h530v-142h-530v-540h-142v540h-530z" />
<glyph unicode="," horiz-adv-x="686" d="M211 0v246h246v-246q0 -138 -54 -215t-192 -127v135q64 25 92.5 66t28.5 110v31h-121z" />
<glyph unicode="-" horiz-adv-x="907" d="M98 532v142h711v-142h-711z" />
<glyph unicode="." horiz-adv-x="686" d="M219 0v246h246v-246h-246z" />
<glyph unicode="/" horiz-adv-x="573" d="M-23 -190l564 1716h135l-563 -1716h-136z" />
<glyph unicode="0" d="M92 725q0 368 154.5 565t439.5 197q286 0 441 -196.5t155 -565.5t-155.5 -566.5t-440.5 -197.5t-439.5 198t-154.5 566zM303 725q0 -287 95.5 -428t289.5 -141q195 0 289 140.5t94 428.5t-94 427.5t-289 139.5q-194 0 -289.5 -140t-95.5 -427z" />
<glyph unicode="1" horiz-adv-x="1372" d="M197 1047v174h34q222 0 331 62.5t122 203.5h154v-1487h-199v1047h-442z" />
<glyph unicode="2" d="M92 0q0 86 28 164.5t73.5 140t114 119t140 101t160.5 87.5q98 48 159 81.5t117 72.5t85.5 75.5t46 81.5t16.5 99q0 123 -96 202t-250 79q-166 0 -257 -88t-91 -254h-221q0 256 147.5 391t423.5 135q261 0 408 -125.5t147 -337.5q0 -98 -33 -178.5t-96.5 -142t-132.5 -105 t-164 -88.5q-87 -40 -179.5 -92t-180 -116t-105.5 -107h871v-195h-1131z" />
<glyph unicode="3" d="M104 451v10h207q0 -155 92.5 -235.5t272.5 -80.5q181 0 281 72t100 195q0 131 -101.5 194.5t-308.5 63.5h-88v166h80q362 0 362 219q0 111 -84 179.5t-229 68.5q-164 0 -252 -78t-88 -234h-213q0 239 143 367.5t406 128.5q242 0 385 -114.5t143 -291.5q0 -248 -260 -315 q158 -15 241 -101.5t83 -234.5q0 -213 -157 -341t-435 -128q-292 0 -436 121.5t-144 368.5z" />
<glyph unicode="4" d="M82 365v196l774 889h191v-901h247v-184h-247v-365h-199v365h-766zM285 549h563v680z" />
<glyph unicode="5" d="M96 399h211q21 -123 108.5 -188.5t239.5 -65.5q176 0 285 96t109 244q0 144 -105.5 235t-277.5 91q-228 0 -326 -156h-205l129 795h891v-184h-733l-70 -414q130 133 371 133q150 0 272 -59.5t193.5 -170t71.5 -251.5q0 -239 -164 -391t-439 -152q-242 0 -390 116.5 t-171 321.5z" />
<glyph unicode="6" d="M86 684q0 388 167 595.5t478 207.5q213 0 345.5 -95.5t160.5 -267.5h-209q-58 179 -297 179q-214 0 -320 -140.5t-106 -427.5q169 223 473 223q236 0 380.5 -132t144.5 -345q0 -229 -167 -374.5t-440 -145.5q-295 0 -452.5 186.5t-157.5 536.5zM332 465q0 -135 100 -222 t268 -87q180 0 286 87.5t106 225.5q0 141 -104 228t-277 87q-169 0 -274 -90t-105 -229z" />
<glyph unicode="7" d="M109 1255v195h1112v-199q-476 -576 -588 -1251h-242q183 813 649 1255h-931z" />
<glyph unicode="8" d="M94 420q0 154 84.5 251.5t241.5 125.5q-129 33 -197.5 111t-68.5 188q0 180 144.5 285.5t403.5 105.5q239 0 377 -108t138 -283q0 -110 -66 -188t-195 -111q318 -67 318 -379q0 -211 -153 -334t-433 -123q-279 0 -436.5 126t-157.5 333zM305 438q0 -129 99 -205.5 t274 -76.5q184 0 284.5 75t100.5 207q0 126 -98.5 197.5t-280.5 71.5q-184 0 -281.5 -71t-97.5 -198zM365 1096q0 -101 87 -163.5t236 -62.5q148 0 233 62t85 164q0 101 -80.5 159t-229.5 58q-158 0 -244.5 -57t-86.5 -160z" />
<glyph unicode="9" d="M78 967q0 229 166.5 374.5t439.5 145.5q295 0 452.5 -186.5t157.5 -536.5q0 -388 -167 -595.5t-478 -207.5q-213 0 -345.5 95.5t-160.5 267.5h209q58 -179 297 -179q214 0 320 140.5t106 427.5q-169 -224 -473 -224q-235 0 -379.5 132.5t-144.5 345.5zM289 979 q0 -141 104 -228t277 -87q169 0 274 90t105 229q0 135 -100.5 222t-268.5 87q-180 0 -285.5 -87.5t-105.5 -225.5z" />
<glyph unicode=":" horiz-adv-x="667" d="M211 0v246h246v-246h-246zM211 852v246h246v-246h-246z" />
<glyph unicode=";" horiz-adv-x="667" d="M203 0v246h246v-246q0 -138 -54 -215t-192 -127v135q64 25 92.5 66t28.5 110v31h-121zM203 852v246h246v-246h-246z" />
<glyph unicode="&#x3c;" horiz-adv-x="1714" d="M266 549v129l1182 485v-153l-973 -398l973 -395v-154z" />
<glyph unicode="=" horiz-adv-x="1714" d="M256 342v141h1202v-141h-1202zM256 741v142h1202v-142h-1202z" />
<glyph unicode="&#x3e;" horiz-adv-x="1714" d="M266 63v154l975 395l-975 398v153l1182 -485v-129z" />
<glyph unicode="?" horiz-adv-x="1220" d="M53 1022q0 234 153 369t415 135q232 0 374 -124.5t142 -324.5q0 -126 -62 -228t-176 -169q-127 -75 -167 -131t-40 -158h-246q0 125 56.5 207t165.5 150q127 79 188.5 152t61.5 171q0 121 -84.5 195.5t-233.5 74.5q-155 0 -241.5 -83t-86.5 -236h-219zM446 0v246h246 v-246h-246z" />
<glyph unicode="@" horiz-adv-x="2056" d="M106 524q0 165 52 313.5t145.5 263.5t219.5 199t279 128.5t318 44.5q229 0 417.5 -85.5t300.5 -244.5t112 -361q0 -173 -68.5 -324t-199.5 -246t-296 -95q-202 0 -202 157v19q-108 -174 -301 -174q-154 0 -235 85.5t-81 248.5q0 156 64 283.5t174 199.5t242 72 q171 0 243 -150l58 115h131l-140 -553q-14 -57 -14 -86q0 -94 100 -94q76 0 148 48t122 123.5t80.5 169.5t30.5 183q0 127 -49.5 235.5t-139 186t-219.5 121t-286 43.5q-183 0 -343.5 -64t-274 -174t-179 -263.5t-65.5 -326.5q0 -215 101 -375.5t277 -243.5t404 -83 q171 0 331.5 49t293.5 143l55 -84q-299 -223 -668 -223q-202 0 -374 56.5t-297 160.5t-196 259t-71 343zM727 449q0 -107 48.5 -164.5t139.5 -57.5q96 0 173 68.5t106 181.5l61 236q-19 91 -70.5 138.5t-129.5 47.5q-90 0 -165.5 -60t-119 -163.5t-43.5 -226.5z" />
<glyph unicode="A" horiz-adv-x="1587" d="M0 0l707 1487h219l661 -1487h-219l-188 424h-760l-197 -424h-223zM508 618h586l-285 633z" />
<glyph unicode="B" horiz-adv-x="1599" d="M170 0v1487h827q218 0 335.5 -98.5t117.5 -276.5q0 -236 -236 -328q140 -28 213.5 -117t73.5 -233q0 -222 -129 -328t-395 -106h-807zM381 195h547q183 0 268.5 51.5t85.5 171.5q0 132 -78 191t-246 59h-577v-473zM381 862h528q175 0 252.5 47.5t77.5 169.5 q0 114 -68.5 163.5t-216.5 49.5h-573v-430z" />
<glyph unicode="C" horiz-adv-x="1728" d="M88 743q0 357 218.5 570t596.5 213q205 0 367 -73t257.5 -204.5t110.5 -302.5h-219q-31 179 -168 280t-350 101q-282 0 -438 -154.5t-156 -429.5q0 -274 157 -428.5t439 -154.5q219 0 363 113t170 302h219q-29 -279 -233.5 -446.5t-520.5 -167.5q-377 0 -595 212.5 t-218 569.5z" />
<glyph unicode="D" horiz-adv-x="1759" d="M170 0v1487h737q138 0 252.5 -25t210.5 -81t162 -142t102.5 -211.5t36.5 -284.5q0 -168 -40.5 -296.5t-112.5 -212.5t-180 -137t-232.5 -75t-280.5 -22h-655zM381 195h510q286 0 423.5 127.5t137.5 422.5q0 288 -138.5 417.5t-422.5 129.5h-510v-1097z" />
<glyph unicode="E" horiz-adv-x="1464" d="M170 0v1487h1182v-195h-971v-434h911v-194h-911v-469h985v-195h-1196z" />
<glyph unicode="F" horiz-adv-x="1327" d="M170 0v1487h1135v-195h-924v-434h821v-194h-821v-664h-211z" />
<glyph unicode="G" horiz-adv-x="1771" d="M88 743q0 237 94 413.5t273 273t422 96.5q288 0 485 -144t219 -364h-215q-41 148 -172.5 228.5t-333.5 80.5q-259 0 -406 -156t-147 -428q0 -269 147 -426t400 -157q230 0 377.5 120t167.5 322h-471v195h667v-797h-147l-21 250q-86 -141 -232.5 -215t-342.5 -74 q-346 0 -555 214.5t-209 567.5z" />
<glyph unicode="H" horiz-adv-x="1667" d="M170 0v1487h211v-590h905v590h211v-1487h-211v702h-905v-702h-211z" />
<glyph unicode="I" horiz-adv-x="583" d="M186 0v1487h211v-1487h-211z" />
<glyph unicode="J" horiz-adv-x="1202" d="M39 438v64h211v-33q0 -163 66.5 -238t215.5 -75q76 0 127.5 16t84 45t49 83t22.5 115.5t6 157.5v914h211v-985q0 -541 -487 -541q-506 0 -506 477z" />
<glyph unicode="K" horiz-adv-x="1525" d="M170 0v1487h211v-764l868 764h271l-707 -619l709 -868h-248l-602 743l-291 -249v-494h-211z" />
<glyph unicode="L" horiz-adv-x="1318" d="M170 0v1487h211v-1292h909v-195h-1120z" />
<glyph unicode="M" horiz-adv-x="2131" d="M170 0v1487h317l574 -1294l588 1294h313v-1487h-205v1305l-590 -1305h-213l-579 1305v-1305h-205z" />
<glyph unicode="N" horiz-adv-x="1763" d="M170 0v1487h283l936 -1268v1268h204v-1487h-284l-934 1268v-1268h-205z" />
<glyph unicode="O" horiz-adv-x="1804" d="M88 743q0 357 218.5 570t596.5 213q377 0 595 -213t218 -570t-218.5 -569.5t-596.5 -212.5q-377 0 -595 212.5t-218 569.5zM307 743q0 -275 156.5 -429t439.5 -154q282 0 438 155t156 428q0 275 -156.5 429.5t-439.5 154.5q-282 0 -438 -154.5t-156 -429.5z" />
<glyph unicode="P" horiz-adv-x="1490" d="M170 0v1487h686q276 0 411.5 -107.5t135.5 -330.5q0 -224 -136.5 -330.5t-414.5 -106.5h-471v-612h-211zM381 786h391q219 0 319.5 58.5t100.5 197.5q0 152 -95.5 211.5t-310.5 59.5h-405v-527z" />
<glyph unicode="Q" horiz-adv-x="1804" d="M88 743q0 357 218.5 570t596.5 213q377 0 595 -213t218 -570q0 -185 -62.5 -336.5t-180.5 -252.5l202 -162l-116 -150l-250 203q-149 -84 -408 -84q-377 0 -595 212.5t-218 569.5zM307 743q0 -278 158 -430.5t450 -152.5q137 0 220 33l-158 124l115 146l219 -176 q90 71 138 188.5t48 267.5q0 275 -156.5 429.5t-439.5 154.5q-282 0 -438 -154.5t-156 -429.5z" />
<glyph unicode="R" horiz-adv-x="1624" d="M170 0v1487h782q259 0 394 -104.5t135 -301.5q0 -283 -256 -364q85 -16 130 -48.5t70 -104t33 -204.5q10 -169 23.5 -249.5t44.5 -110.5h-246q-23 54 -37 281q-5 77 -12 128t-22 93.5t-35.5 67t-54.5 41t-77 22.5t-106 6h-555v-639h-211zM381 813h487q211 0 306.5 55.5 t95.5 196.5q0 145 -97 196.5t-323 51.5h-469v-500z" />
<glyph unicode="S" horiz-adv-x="1525" d="M102 502h224q6 -175 121.5 -260.5t345.5 -85.5q199 0 305 66.5t106 185.5q0 90 -60.5 138t-195.5 72l-366 66q-221 39 -325.5 132.5t-104.5 260.5q0 212 160.5 330.5t465.5 118.5q285 0 438.5 -122.5t153.5 -348.5h-209q-10 142 -107.5 209t-291.5 67 q-192 0 -290.5 -60.5t-98.5 -174.5q0 -87 61.5 -131.5t202.5 -71.5l326 -64q246 -46 354 -134t108 -269q0 -218 -167.5 -341.5t-477.5 -123.5q-333 0 -505.5 137t-172.5 404z" />
<glyph unicode="T" horiz-adv-x="1345" d="M0 1292v195h1346v-195h-568v-1292h-211v1292h-567z" />
<glyph unicode="U" horiz-adv-x="1654" d="M170 555v932h211v-844q0 -247 107 -367t337 -120q231 0 340 120t109 367v844h211v-932q0 -290 -168 -442t-490 -152t-489.5 151.5t-167.5 442.5z" />
<glyph unicode="V" horiz-adv-x="1525" d="M-12 1487h225l549 -1297l547 1297h229l-657 -1487h-242z" />
<glyph unicode="W" horiz-adv-x="2340" d="M6 1487h223l414 -1301l406 1301h241l406 -1301l413 1301h224l-500 -1487h-250l-416 1282l-411 -1282h-250z" />
<glyph unicode="X" horiz-adv-x="1480" d="M10 0l613 762l-553 725h264l416 -565l448 565h254l-582 -723l598 -764h-268l-461 612l-458 -612h-271z" />
<glyph unicode="Y" horiz-adv-x="1472" d="M-31 1487h256l512 -692l518 692h252l-661 -866v-621h-211v621z" />
<glyph unicode="Z" horiz-adv-x="1421" d="M35 0v207l1069 1085h-1000v195h1264v-209l-1069 -1083h1087v-195h-1351z" />
<glyph unicode="[" horiz-adv-x="667" d="M135 -391v1878h492v-162h-293v-1554h293v-162h-492z" />
<glyph unicode="\" horiz-adv-x="573" d="M-102 1526h135l563 -1716h-135z" />
<glyph unicode="]" horiz-adv-x="667" d="M41 -229h293v1554h-293v162h491v-1878h-491v162z" />
<glyph unicode="^" horiz-adv-x="2058" d="M422 905l512 561h186l512 -561h-180l-424 422l-426 -422h-180z" />
<glyph unicode="_" horiz-adv-x="1028" d="M0 -336h1028v-141h-1028v141z" />
<glyph unicode="`" horiz-adv-x="989" d="M227 1526h226l165 -277h-131z" />
<glyph unicode="a" horiz-adv-x="1382" d="M109 301q0 54 12 98t33 76t56.5 57.5t74 43t94.5 31t110 22t127 16.5q30 3 85 9q46 4 67 6.5t56 7.5t51 9.5t39 12t33 17t21 23t15 30.5t4 39q0 89 -70.5 129.5t-220.5 40.5q-169 0 -250 -52t-88 -169h-206q21 389 530 389q276 0 390 -82t114 -283v-446q0 -90 21 -130 t77 -40q22 0 59 6v-160q-88 -14 -157 -14q-85 0 -131.5 45.5t-61.5 136.5q-76 -97 -194.5 -149t-268.5 -52q-204 0 -312.5 88t-108.5 244zM319 311q0 -79 64.5 -126.5t179.5 -47.5q185 0 304.5 78t119.5 186v164q-79 -48 -334 -76q-55 -6 -87 -10.5t-72.5 -12t-63 -15.5 t-47 -21t-36.5 -29t-20 -38.5t-8 -51.5z" />
<glyph unicode="b" horiz-adv-x="1435" d="M147 0v1487h199v-553q161 203 424 203q261 0 425.5 -166t164.5 -424t-163.5 -418t-424.5 -160q-265 0 -426 193v-162h-199zM346 547q0 -184 108 -288.5t296 -104.5t293.5 104.5t105.5 290.5t-106.5 294.5t-292.5 108.5t-295 -110.5t-109 -294.5z" />
<glyph unicode="c" horiz-adv-x="1304" d="M76 549q0 263 165.5 425.5t432.5 162.5q218 0 365 -108.5t182 -293.5h-207q-29 101 -115 159t-207 58q-189 0 -297 -108.5t-108 -296.5q0 -183 107.5 -288t283.5 -105q138 0 230 68.5t112 189.5h209q-35 -209 -184 -326t-375 -117q-264 0 -429 159.5t-165 420.5z" />
<glyph unicode="d" horiz-adv-x="1435" d="M76 547q0 258 164.5 424t425.5 166q133 0 246.5 -54t177.5 -149v553h198v-1487h-198v162q-161 -193 -426 -193q-261 0 -424.5 160t-163.5 418zM287 547q0 -186 105.5 -289.5t293.5 -103.5t296 104.5t108 288.5t-109 294.5t-295 110.5t-292.5 -109.5t-106.5 -295.5z" />
<glyph unicode="e" horiz-adv-x="1355" d="M76 549q0 268 164 428t440 160q282 0 441 -156t159 -432v-39h-993q0 -161 108 -258.5t285 -97.5q132 0 224.5 49t125.5 139h232q-58 -178 -210 -275.5t-372 -97.5q-278 0 -441 157t-163 423zM291 651h776q-23 140 -125.5 220.5t-261.5 80.5q-158 0 -261 -80t-128 -221z " />
<glyph unicode="f" horiz-adv-x="757" d="M57 934v168h195v115q0 141 68 205.5t217 64.5q100 0 184 -17v-180q-66 13 -133 13q-77 0 -107 -27.5t-30 -99.5v-74h270v-168h-270v-934h-199v934h-195z" />
<glyph unicode="g" horiz-adv-x="1437" d="M76 549q0 258 164.5 423t423.5 165q143 0 252 -56t176 -159v180h198v-961q0 -279 -146 -407.5t-468 -128.5q-240 0 -374.5 92.5t-151.5 265.5h223q29 -174 305 -174q225 0 319.5 77.5t94.5 258.5v37q-172 -193 -426 -193q-262 0 -426 161.5t-164 418.5zM285 549 q0 -187 109 -291t300 -104t301.5 105t110.5 290q0 188 -110.5 295.5t-301.5 107.5t-300 -107t-109 -296z" />
<glyph unicode="h" horiz-adv-x="1363" d="M147 0v1487h199v-576q80 106 195 166t258 60q122 0 205.5 -33.5t129 -100t64.5 -150t19 -198.5v-655h-199v639q0 172 -59.5 251t-204.5 79q-177 0 -292.5 -114t-115.5 -296v-559h-199z" />
<glyph unicode="i" horiz-adv-x="526" d="M164 0v1102h198v-1102h-198zM164 1245v242h198v-242h-198z" />
<glyph unicode="j" horiz-adv-x="526" d="M-82 -205q32 -4 70 -4q89 0 132.5 38.5t43.5 117.5v1155h198v-1163q0 -185 -78 -258.5t-278 -73.5q-42 0 -88 4v184zM164 1245v242h198v-242h-198z" />
<glyph unicode="k" horiz-adv-x="1255" d="M147 0v1487h199v-866l580 481h295l-523 -420l562 -682h-269l-440 561l-205 -164v-397h-199z" />
<glyph unicode="l" horiz-adv-x="526" d="M164 0v1487h198v-1487h-198z" />
<glyph unicode="m" horiz-adv-x="2228" d="M147 0v1102h199v-191q186 226 455 226q153 0 255 -65t136 -179q100 124 212.5 184t256.5 60q99 0 172 -23.5t120 -64.5t76 -106t40.5 -139.5t11.5 -172.5v-631h-199v639q0 172 -59.5 251t-204.5 79q-177 0 -292.5 -114t-115.5 -296v-559h-192v639q0 172 -59.5 251 t-204.5 79q-177 0 -292.5 -114t-115.5 -296v-559h-199z" />
<glyph unicode="n" horiz-adv-x="1363" d="M147 0v1102h199v-191q80 106 195 166t258 60q122 0 205.5 -33.5t129 -100t64.5 -150t19 -198.5v-655h-199v639q0 172 -59.5 251t-204.5 79q-177 0 -292.5 -114t-115.5 -296v-559h-199z" />
<glyph unicode="o" horiz-adv-x="1382" d="M76 549q0 267 166.5 427.5t449.5 160.5t449 -160.5t166 -427.5q0 -266 -165.5 -423t-449.5 -157t-450 157t-166 423zM287 553q0 -187 108 -293t297 -106t296.5 106t107.5 293t-107.5 293t-296.5 106t-297 -106t-108 -293z" />
<glyph unicode="p" horiz-adv-x="1437" d="M147 -391v1493h199v-166q71 95 180.5 148t245.5 53q260 0 425 -164.5t165 -423.5q0 -257 -165 -418.5t-427 -161.5q-255 0 -424 193v-553h-199zM346 549q0 -183 108.5 -289t295.5 -106t294 105t107 290q0 187 -107 295t-294 108t-295.5 -109t-108.5 -294z" />
<glyph unicode="q" horiz-adv-x="1437" d="M76 549q0 259 165 423.5t425 164.5q282 0 426 -201v166h198v-1493h-198v553q-169 -193 -424 -193q-262 0 -427 161.5t-165 418.5zM287 549q0 -185 107 -290t294 -105t295.5 106t108.5 289q0 185 -108.5 294t-295.5 109t-294 -108t-107 -295z" />
<glyph unicode="r" horiz-adv-x="829" d="M147 0v1102h199v-187q75 109 179 165.5t227 56.5q51 0 88 -19v-209q-79 23 -144 23q-144 0 -247 -111t-103 -282v-539h-199z" />
<glyph unicode="s" horiz-adv-x="1234" d="M76 358h217q14 -106 97.5 -163.5t225.5 -57.5q166 0 255.5 44.5t89.5 121.5q0 62 -45.5 90.5t-155.5 46.5l-246 43q-104 17 -170.5 37t-118.5 54t-75 85.5t-23 126.5q0 171 125.5 261t370.5 90q247 0 374 -94t127 -273h-192q-20 199 -320 199q-139 0 -212.5 -38.5 t-73.5 -109.5q0 -31 11 -54t27.5 -38t51.5 -27t67.5 -19t91.5 -17l238 -39q189 -32 267.5 -100t78.5 -214q0 -168 -137 -256t-406 -88q-258 0 -389.5 94t-150.5 295z" />
<glyph unicode="t" horiz-adv-x="745" d="M47 934v168h193v280h198v-280h271v-168h-271v-653q0 -69 31 -98t104 -29q65 0 136 16v-182q-129 -19 -185 -19q-146 0 -215 62.5t-69 191.5v711h-193z" />
<glyph unicode="u" horiz-adv-x="1363" d="M147 403v699h199v-641q0 -172 59 -248t205 -76q178 0 293 111t115 293v561h199v-1102h-199v186q-179 -217 -453 -217q-206 0 -312 104t-106 330z" />
<glyph unicode="v" horiz-adv-x="1202" d="M-4 1102h237l375 -930l367 930h231l-489 -1102h-221z" />
<glyph unicode="w" horiz-adv-x="1818" d="M-4 1102h242l284 -916l281 916h225l264 -916l299 916h232l-426 -1102h-226l-260 903l-272 -903h-227z" />
<glyph unicode="x" horiz-adv-x="1236" d="M-4 0l491 559l-444 543h270l314 -422l327 422h267l-473 -543l493 -559h-278l-336 430l-369 -430h-262z" />
<glyph unicode="y" horiz-adv-x="1202" d="M-4 1102h237l375 -928l367 928h231l-487 -1094q-49 -110 -73 -158.5t-63.5 -108t-78 -80.5t-96.5 -36.5t-140 -15.5q-56 0 -137 8v188q77 -12 117 -12q107 0 160.5 45t87.5 162z" />
<glyph unicode="z" horiz-adv-x="1218" d="M66 0v197l827 737h-784v168h1024v-176l-816 -758h836v-168h-1087z" />
<glyph unicode="{" horiz-adv-x="1028" d="M168 463v141h45q133 0 186.5 62t53.5 211v266q0 104 17 168t61.5 103.5t113.5 54t182 14.5h43v-150h-41q-126 0 -164 -46.5t-38 -184.5v-242q0 -152 -41.5 -224.5t-161.5 -103.5q121 -31 162 -103t41 -224v-242q0 -70 7 -110.5t29.5 -69t62 -39t105.5 -10.5h39v-150h-43 q-115 0 -182.5 13.5t-113 54t-62 108.5t-16.5 183v245q0 149 -54 212t-188 63h-43z" />
<glyph unicode="|" horiz-adv-x="1028" d="M440 -485v2056h150v-2056h-150z" />
<glyph unicode="}" horiz-adv-x="1028" d="M162 -266h39q66 0 105.5 10.5t62 39t30 69t7.5 110.5v242q0 152 40.5 224t161.5 103q-120 31 -161 103.5t-41 224.5v242q0 71 -7.5 112t-30 69.5t-61 39t-104.5 10.5h-41v150h43q113 0 182 -14.5t114 -54t62 -103.5t17 -168v-266q0 -149 53.5 -211t185.5 -62h45v-141h-43 q-134 0 -187.5 -63t-53.5 -212v-245q0 -114 -16.5 -182.5t-62.5 -109t-113.5 -54t-182.5 -13.5h-43v150z" />
<glyph unicode="~" horiz-adv-x="1714" d="M178 453v155q214 144 389 144q77 0 161 -21t144.5 -47t136.5 -47t140 -21q91 0 183.5 38.5t205.5 117.5v-156q-206 -141 -391 -141q-69 0 -148 21t-139.5 46.5t-141.5 46.5t-153 21q-88 0 -180 -38.5t-207 -118.5z" />
<glyph unicode="&#xa3;" d="M86 143q113 31 176.5 113t63.5 195q0 84 -47 196h-193v137h143q-69 138 -69 246q0 87 33 161.5t91 128t135 92t165.5 57t183.5 18.5q256 0 395.5 -126t147.5 -360h-203q-11 153 -97.5 232.5t-246.5 79.5q-170 0 -276.5 -88t-106.5 -219q0 -91 61 -222h461v-137h-397 q37 -78 37 -151q0 -158 -174 -306q121 41 217 41q58 0 178 -30.5t184 -30.5q170 0 307 98l70 -188q-120 -117 -334 -117q-90 0 -260.5 41t-253.5 41q-138 0 -272 -84z" />
<glyph unicode="&#xa4;" horiz-adv-x="1249" d="M82 430l207 205q-84 110 -84 254q0 138 84 254l-207 207l82 80l205 -205q118 86 256 86q140 0 258 -86l204 205l82 -80l-204 -207q82 -113 82 -254q0 -142 -82 -254l204 -205l-82 -82l-204 205q-120 -86 -256 -86q-140 0 -258 86l-205 -205zM322 891q0 -126 89.5 -216.5 t215.5 -90.5t214.5 90.5t88.5 216.5q0 125 -88.5 214t-214.5 89t-215.5 -89t-89.5 -214z" />
<glyph unicode="&#xa6;" horiz-adv-x="1028" d="M440 -352v762h150v-762h-150zM440 676v762h150v-762h-150z" />
<glyph unicode="&#xa7;" horiz-adv-x="1368" d="M86 666q0 104 53 176t164 119q-96 86 -96 219q0 152 126 249t345 97q237 0 354 -90t127 -293h-205q-12 103 -79 150.5t-207 47.5q-123 0 -187.5 -40.5t-64.5 -118.5q0 -71 79 -118t343 -140q60 -21 97.5 -35t83.5 -32t73 -32.5t58.5 -34t49 -38t36 -42t27 -50t14 -58.5 t5.5 -70q0 -194 -209 -286q101 -84 101 -221q0 -174 -130 -271.5t-372 -97.5q-240 0 -371 104t-139 297h211q0 -217 315 -217q270 0 270 172q0 74 -55 113q-34 24 -80.5 42.5t-119 41t-115.5 39.5q-281 106 -344 151q-86 58 -122 115.5t-36 151.5zM283 713 q0 -75 53.5 -123.5t173.5 -93.5l321 -123q58 -20 136 -58q120 67 120 189q0 63 -38 104t-123 72l-402 154q-22 8 -114 51q-127 -69 -127 -172z" />
<glyph unicode="&#xa9;" horiz-adv-x="1714" d="M117 731q0 142 57 277t153.5 237.5t235.5 165t293 62.5q203 0 374.5 -102t270 -272.5t98.5 -367.5q0 -151 -61 -289t-162.5 -236.5t-238 -157t-281.5 -58.5q-98 0 -192.5 27.5t-175.5 76.5t-150 118.5t-117.5 150.5t-76 176t-27.5 192zM215 731q0 -125 53 -243.5 t140 -206t205.5 -140.5t244.5 -53q122 0 239.5 50.5t206 136t143 205.5t54.5 251q0 134 -52.5 254.5t-140 205t-205.5 134t-245 49.5q-131 0 -250.5 -52.5t-205 -139.5t-136.5 -205.5t-51 -245.5zM465 737q0 203 109.5 325t287.5 122q143 0 238.5 -76t105.5 -197h-149 q-12 78 -65.5 120t-139.5 42q-103 0 -165 -89.5t-62 -252.5q0 -159 63.5 -246.5t173.5 -87.5q82 0 137 47t70 131h145q-9 -132 -108 -213t-250 -81q-183 0 -287 119.5t-104 336.5z" />
<glyph unicode="&#xab;" horiz-adv-x="1142" d="M143 430v240l371 284v-219l-242 -186l242 -184v-220zM621 430v240l368 284v-219l-241 -186l241 -184v-220z" />
<glyph unicode="&#xac;" horiz-adv-x="1714" d="M256 532v142h1202v-506h-137v364h-1065z" />
<glyph unicode="&#xad;" horiz-adv-x="907" d="M98 532v142h711v-142h-711z" />
<glyph unicode="&#xae;" horiz-adv-x="1714" d="M117 731q0 142 56 276.5t151.5 237.5t235 165.5t296.5 62.5q149 0 287 -60.5t237.5 -160.5t159 -237t59.5 -284q0 -151 -61 -289t-162.5 -236.5t-238 -157t-281.5 -58.5q-146 0 -282.5 60.5t-236.5 160.5t-160 237t-60 283zM215 733q0 -125 52 -244t138.5 -206.5 t204 -141t242.5 -53.5t243.5 49.5t208 134t143.5 203.5t54 250q0 142 -53.5 265.5t-142.5 206.5t-205.5 130t-241.5 47q-131 0 -250.5 -52.5t-205 -140t-136.5 -205t-51 -243.5zM559 326v839h318q350 0 350 -231q0 -89 -50.5 -147.5t-142.5 -77.5l189 -383h-179l-170 358 h-155v-358h-160zM719 782h133q109 0 161 32t52 104q0 78 -52 113.5t-163 35.5h-131v-285z" />
<glyph unicode="&#xb0;" horiz-adv-x="677" d="M49 1174q0 121 86 205.5t205 84.5t204 -85t85 -205q0 -118 -84.5 -203.5t-206.5 -85.5q-121 0 -205 84.5t-84 204.5zM145 1176q0 -82 56.5 -138.5t138.5 -56.5t137 57t55 138q0 80 -55.5 136t-136.5 56q-80 0 -137.5 -55.5t-57.5 -136.5z" />
<glyph unicode="&#xb1;" horiz-adv-x="1714" d="M256 219v141h1202v-141h-1202zM256 905v142h530v339h142v-339h530v-142h-530v-342h-142v342h-530z" />
<glyph unicode="&#xb5;" horiz-adv-x="1157" d="M-113 -430l318 1507h182l-127 -585q-18 -90 -18 -152q0 -99 53 -153t149 -54q135 0 212.5 98t121.5 308l115 538h178l-156 -735q-22 -108 -22 -133q0 -37 17 -52.5t55 -15.5q26 0 34 4l-32 -147q-58 -12 -109 -12q-63 0 -96.5 30.5t-52.5 100.5q-91 -131 -273 -131 q-82 0 -144 27.5t-114 88.5l-110 -532h-181z" />
<glyph unicode="&#xb6;" horiz-adv-x="1028" d="M66 1137q0 156 107 253t288 97h502v-86h-121v-1401h-111v1401h-180v-1401h-111v786q-173 7 -273.5 103t-100.5 248z" />
<glyph unicode="&#xb7;" horiz-adv-x="686" d="M193 725q0 63 44 106t107 43t106.5 -43t43.5 -106t-43.5 -107.5t-106.5 -44.5t-107 44.5t-44 107.5z" />
<glyph unicode="&#xbb;" horiz-adv-x="1142" d="M152 145v220l241 184l-241 186v219l370 -284v-240zM629 145v220l241 184l-241 186v219l368 -284v-240z" />
<glyph unicode="&#x2000;" horiz-adv-x="804" />
<glyph unicode="&#x2001;" horiz-adv-x="1608" />
<glyph unicode="&#x2002;" horiz-adv-x="804" />
<glyph unicode="&#x2003;" horiz-adv-x="1608" />
<glyph unicode="&#x2004;" horiz-adv-x="536" />
<glyph unicode="&#x2005;" horiz-adv-x="402" />
<glyph unicode="&#x2006;" horiz-adv-x="268" />
<glyph unicode="&#x2007;" horiz-adv-x="268" />
<glyph unicode="&#x2008;" horiz-adv-x="201" />
<glyph unicode="&#x2009;" horiz-adv-x="321" />
<glyph unicode="&#x200a;" horiz-adv-x="89" />
<glyph unicode="&#x2010;" horiz-adv-x="907" d="M98 532v142h711v-142h-711z" />
<glyph unicode="&#x2011;" horiz-adv-x="907" d="M98 532v142h711v-142h-711z" />
<glyph unicode="&#x2012;" horiz-adv-x="907" d="M98 532v142h711v-142h-711z" />
<glyph unicode="&#x2013;" horiz-adv-x="1243" d="M98 532v142h1047v-142h-1047z" />
<glyph unicode="&#x2014;" horiz-adv-x="2097" d="M20 532v142h2057v-142h-2057z" />
<glyph unicode="&#x2018;" horiz-adv-x="620" d="M195 938v246q0 138 53.5 215t191.5 127v-135q-64 -25 -92.5 -66.5t-28.5 -110.5v-30h121v-246h-245z" />
<glyph unicode="&#x2019;" horiz-adv-x="620" d="M180 897v135q64 25 92.5 66t28.5 110v31h-121v246h246v-246q0 -138 -54 -215t-192 -127z" />
<glyph unicode="&#x201a;" horiz-adv-x="686" d="M211 0v246h246v-246q0 -138 -54 -215t-192 -127v135q64 25 92.5 66t28.5 110v31h-121z" />
<glyph unicode="&#x201c;" horiz-adv-x="1013" d="M195 938v246q0 138 53.5 215t191.5 127v-135q-64 -25 -92.5 -66.5t-28.5 -110.5v-30h121v-246h-245zM596 938v246q0 138 54 215t192 127v-135q-64 -25 -92.5 -66.5t-28.5 -110.5v-30h121v-246h-246z" />
<glyph unicode="&#x201d;" horiz-adv-x="1013" d="M178 897v135q64 25 92.5 66t28.5 110v31h-121v246h246v-246q0 -138 -54 -215t-192 -127zM573 897v135q64 25 92.5 66t28.5 110v31h-121v246h246v-246q0 -138 -54 -215t-192 -127z" />
<glyph unicode="&#x201e;" horiz-adv-x="1013" d="M178 0v246h246v-246q0 -138 -54 -215t-192 -127v135q64 25 92.5 66t28.5 110v31h-121zM573 0v246h246v-246q0 -138 -54 -215t-192 -127v135q64 25 92.5 66t28.5 110v31h-121z" />
<glyph unicode="&#x2022;" horiz-adv-x="1212" d="M307 766q0 123 88 210t211 87q122 0 209.5 -87t87.5 -210q0 -122 -88 -210.5t-211 -88.5t-210 88t-87 211z" />
<glyph unicode="&#x2026;" horiz-adv-x="1873" d="M123 0v246h246v-246h-246zM809 0v246h246v-246h-246zM1495 0v246h246v-246h-246z" />
<glyph unicode="&#x202f;" horiz-adv-x="321" />
<glyph unicode="&#x2039;" horiz-adv-x="667" d="M145 430v240l369 284v-219l-240 -186l240 -184v-220z" />
<glyph unicode="&#x203a;" horiz-adv-x="667" d="M154 145v220l239 184l-239 186v219l368 -284v-240z" />
<glyph unicode="&#x205f;" horiz-adv-x="402" />
<glyph unicode="&#x20ac;" d="M51 492l68 167h98q-4 32 -4 74q0 34 4 66h-166l68 168h114q18 87 50.5 162t85.5 142t121.5 114.5t164.5 75.5t209 28q129 0 238.5 -34t167.5 -77v-223q-59 57 -158 95t-227 38q-185 0 -295.5 -89t-140.5 -232h729l-66 -168h-692q-2 -16 -2 -64q0 -60 2 -76h635l-66 -167 h-540q33 -155 145 -243.5t293 -88.5q236 0 383 135v-225q-50 -41 -157.5 -74t-248.5 -33q-256 0 -419 133.5t-212 395.5h-182z" />
<glyph unicode="&#x2122;" horiz-adv-x="1714" d="M244 1384v82h454v-82h-174v-460h-108v460h-172zM817 924v542h150l153 -387l142 387h149v-542h-98v446l-166 -446h-55l-177 446v-446h-98z" />
<glyph unicode="&#x25fc;" horiz-adv-x="1105" d="M0 0v1106h1106v-1106h-1106z" />
</font>
</defs>
</svg>
